<svg xmlns="http://www.w3.org/2000/svg" viewBox="0 0 415.29 91.5"><defs><style>.cls-1{fill:#fff;}</style></defs><title>Avaloqs Asset Logo(Secondary)</title><g id="Layer_2" data-name="Layer 2"><g id="Layer_1-2" data-name="Layer 1"><path class="cls-1" d="M46.46,56.16a3.38,3.38,0,0,0-5.23,0L31.46,71c-1,1.52.42,3.31,2.62,3.31H53.61c2.19,0,3.61-1.79,2.61-3.31Z"/><path class="cls-1" d="M59.16,47.28,46.46,28a3.22,3.22,0,0,0-5.23,0L28.52,47.28l-3.47,5.23a17.24,17.24,0,0,0-3,9.54V64L42,33.68a2.27,2.27,0,0,1,3.7,0L65.61,64v-1.9a17.17,17.17,0,0,0-3-9.54Z"/><path class="cls-1" d="M0,6V85.52a6,6,0,0,0,6,6H81.7a6,6,0,0,0,6-6V6a6,6,0,0,0-6-6H6A6,6,0,0,0,0,6ZM79.64,81.44c0,2.06-2.16,3.73-4.82,3.73h-62c-2.66,0-4.81-1.67-4.81-3.73V62.05a17.24,17.24,0,0,1,3-9.54l3.47-5.23L40.19,8.21a4.48,4.48,0,0,1,7.3,0L73.2,47.28l3.46,5.23a17.17,17.17,0,0,1,3,9.54Z"/><path class="cls-1" d="M128.71,59.77l-1.82-8.71h-14L111,59.77H95.41l15-58.24h19.33l15,58.24Zm-13.34-20h9.07l-4.44-21Z"/><path class="cls-1" d="M175.88,1.53h16.51L178.06,59.77H159.64L145.31,1.53h16.51l7,38.92Z"/><path class="cls-1" d="M226.32,59.77l-1.81-8.71h-14l-1.91,8.71H193L208,1.53h19.32l15,58.24ZM213,39.81h9.07l-4.45-21Z"/><path class="cls-1" d="M261.79,48.43h18.06V59.77H245.92V1.53h15.87Z"/><path class="cls-1" d="M296.54,1.53H310q13.35,0,13.34,11.25V48.52q0,11.25-13.34,11.25H296.54q-13.34,0-13.34-11.25V12.78Q283.2,1.53,296.54,1.53Zm10.89,44.9V14.86c0-1.33-.76-2-2.27-2h-3.81c-1.52,0-2.27.66-2.27,2V46.43c0,1.33.75,2,2.27,2h3.81C306.67,48.43,307.43,47.76,307.43,46.43Z"/><path class="cls-1" d="M343.35,59.77Q330,59.77,330,48.52V12.78q0-11.25,13.34-11.25h13.42q13.35,0,13.34,11.25V48.52q0,5.63-3.36,8.44l8.44,9H357.14l-5.72-6.17Zm2.54-44.91V46.43c0,1.33.75,2,2.27,2H352c1.51,0,2.27-.67,2.27-2V14.86c0-1.33-.76-2-2.27-2h-3.81C346.64,12.87,345.89,13.53,345.89,14.86Z"/><path class="cls-1" d="M399.41,46.43V38.18c0-1.33-.75-2-2.26-2h-8.71q-6.72,0-9.48-3t-2.77-8.48v-12q0-11.25,13.24-11.25h12.43q13.25,0,13.25,11.25v7H399.23v-4.9c0-1.33-.76-2-2.27-2h-2.63c-1.51,0-2.26.66-2.26,2v8.62c0,1.33.75,2,2.26,2h8.53q6.72,0,9.57,2.81c1.91,1.87,2.86,4.63,2.86,8.26v12q0,11.25-13.24,11.25H389.71q-13.33,0-13.34-11.25v-7h15.88v4.9c0,1.33.75,2,2.26,2h2.64C398.66,48.43,399.41,47.76,399.41,46.43Z"/><path class="cls-1" d="M157.66,89.56l6.64-19.44h4l6.41,19.44h-3.4l-1.42-4.41h-7.36l-1.47,4.41Zm5.7-6.86h5.76L166.27,74Z"/><path class="cls-1" d="M200.06,90a9.43,9.43,0,0,1-3.68-.7,6,6,0,0,1-3.82-5.73h3.16a3.16,3.16,0,0,0,.59,2,3.45,3.45,0,0,0,1.57,1.14,6.57,6.57,0,0,0,4.23,0,3.27,3.27,0,0,0,1.4-.92,2,2,0,0,0,.51-1.36,2.21,2.21,0,0,0-.64-1.68,5.77,5.77,0,0,0-2-1.08l-3.72-1.43a10.61,10.61,0,0,1-3.51-2A4.23,4.23,0,0,1,193,75a4.62,4.62,0,0,1,1.84-3.79,8,8,0,0,1,5.15-1.46,7.42,7.42,0,0,1,4.93,1.48,5.8,5.8,0,0,1,2,4.08H203.7a3,3,0,0,0-1.11-1.92,5.13,5.13,0,0,0-5.19,0,2,2,0,0,0-.92,1.73,1.76,1.76,0,0,0,.58,1.4,5.68,5.68,0,0,0,1.8,1L203.05,79a8.49,8.49,0,0,1,3.32,2.08,4.52,4.52,0,0,1,1.17,3.2,5.14,5.14,0,0,1-.87,3,5.6,5.6,0,0,1-2.54,2A10.45,10.45,0,0,1,200.06,90Z"/><path class="cls-1" d="M234.17,90a9.43,9.43,0,0,1-3.68-.7,6,6,0,0,1-3.82-5.73h3.16a3.16,3.16,0,0,0,.59,2A3.45,3.45,0,0,0,232,86.65a6.57,6.57,0,0,0,4.23,0,3.27,3.27,0,0,0,1.4-.92,2,2,0,0,0,.51-1.36,2.21,2.21,0,0,0-.64-1.68,5.77,5.77,0,0,0-2-1.08l-3.72-1.43a10.61,10.61,0,0,1-3.51-2,4.23,4.23,0,0,1-1.21-3.2,4.62,4.62,0,0,1,1.84-3.79,8.05,8.05,0,0,1,5.15-1.46A7.42,7.42,0,0,1,239,71.22a5.8,5.8,0,0,1,2,4.08h-3.16a3,3,0,0,0-1.11-1.92,5.13,5.13,0,0,0-5.19,0,2,2,0,0,0-.92,1.73,1.76,1.76,0,0,0,.58,1.4,5.68,5.68,0,0,0,1.8,1L237.16,79a8.49,8.49,0,0,1,3.32,2.08,4.52,4.52,0,0,1,1.17,3.2,5.14,5.14,0,0,1-.87,3,5.6,5.6,0,0,1-2.54,2A10.45,10.45,0,0,1,234.17,90Z"/><path class="cls-1" d="M261.64,89.56V70.12H274V72.9h-9.12v5.52h8.58V81.2h-8.58v5.55H274v2.81Z"/><path class="cls-1" d="M291.61,72.9V70.12h15.45V72.9h-6.83l.71-.74v17.4h-3.22V72.16l.72.74Z"/><path class="cls-1" d="M331.84,90a9.38,9.38,0,0,1-3.67-.7,6,6,0,0,1-3.82-5.73h3.15a3.16,3.16,0,0,0,.59,2,3.48,3.48,0,0,0,1.58,1.14,5.94,5.94,0,0,0,2.14.37,6,6,0,0,0,2.08-.33,3.36,3.36,0,0,0,1.41-.92,2,2,0,0,0,.51-1.36,2.21,2.21,0,0,0-.65-1.68,5.77,5.77,0,0,0-2-1.08l-3.71-1.43a10.41,10.41,0,0,1-3.51-2,4.19,4.19,0,0,1-1.21-3.2,4.61,4.61,0,0,1,1.83-3.79,8.07,8.07,0,0,1,5.15-1.46,7.4,7.4,0,0,1,4.93,1.48,5.81,5.81,0,0,1,2,4.08h-3.16a3,3,0,0,0-1.11-1.92,5.15,5.15,0,0,0-5.2,0,2.07,2.07,0,0,0-.92,1.73,1.76,1.76,0,0,0,.58,1.4,5.64,5.64,0,0,0,1.81,1L334.84,79a8.49,8.49,0,0,1,3.32,2.08,4.52,4.52,0,0,1,1.17,3.2,5.14,5.14,0,0,1-.87,3,5.65,5.65,0,0,1-2.54,2A10.46,10.46,0,0,1,331.84,90Z"/></g></g></svg>