<svg width="431" height="451" viewBox="0 0 431 451" fill="none" xmlns="http://www.w3.org/2000/svg">
<path d="M484.463 370.358H0.696289V370.6H484.463V370.358Z" fill="#272727"/>
<path d="M435.99 385.925H403.945V386.167H435.99V385.925Z" fill="#272727"/>
<path d="M321.163 388.557H312.755V388.799H321.163V388.557Z" fill="#272727"/>
<path d="M402.977 376.947H384.41V377.188H402.977V376.947Z" fill="#272727"/>
<path d="M93.2409 378.572H51.4531V378.814H93.2409V378.572Z" fill="#272727"/>
<path d="M107.986 378.572H101.861V378.814H107.986V378.572Z" fill="#272727"/>
<path d="M218.536 382.655H127.897V382.897H218.536V382.655Z" fill="#272727"/>
<path d="M209.074 73.2671L209.887 74.9215C209.934 75.0183 210.005 75.1018 210.093 75.1643C210.181 75.2268 210.283 75.2664 210.39 75.2795L212.219 75.5504C212.34 75.5691 212.453 75.6211 212.546 75.7007C212.639 75.7802 212.708 75.8841 212.745 76.0007C212.783 76.1174 212.786 76.242 212.757 76.3607C212.727 76.4795 212.665 76.5875 212.577 76.6728L211.261 77.9693C211.183 78.0426 211.125 78.134 211.091 78.2353C211.058 78.3365 211.049 78.4446 211.067 78.5498L211.377 80.3687C211.4 80.4917 211.388 80.6188 211.342 80.7351C211.295 80.8513 211.217 80.9519 211.115 81.025C211.013 81.0982 210.893 81.1408 210.768 81.148C210.643 81.1551 210.519 81.1265 210.409 81.0654L208.774 80.2043C208.68 80.1566 208.575 80.1318 208.47 80.1318C208.364 80.1318 208.259 80.1566 208.165 80.2043L206.52 81.0654C206.411 81.1265 206.286 81.1551 206.161 81.148C206.036 81.1408 205.916 81.0982 205.814 81.025C205.713 80.9519 205.634 80.8513 205.588 80.7351C205.541 80.6188 205.529 80.4917 205.552 80.3687L205.872 78.5498C205.887 78.4446 205.878 78.3373 205.844 78.2364C205.811 78.1356 205.754 78.0441 205.678 77.9693L204.353 76.6728C204.265 76.5869 204.203 76.4781 204.173 76.3586C204.144 76.2392 204.149 76.114 204.187 75.9971C204.225 75.8802 204.296 75.7764 204.39 75.6975C204.484 75.6185 204.599 75.5676 204.72 75.5504L206.549 75.2795C206.655 75.2648 206.757 75.2245 206.844 75.1622C206.932 75.0999 207.003 75.0173 207.052 74.9215L207.865 73.2671C207.919 73.1521 208.004 73.0548 208.111 72.9867C208.218 72.9185 208.343 72.8823 208.47 72.8823C208.596 72.8823 208.721 72.9185 208.828 72.9867C208.935 73.0548 209.02 73.1521 209.074 73.2671Z" fill="#120808"/>
<path d="M88.6067 209.544L89.4291 211.208C89.4763 211.303 89.5459 211.386 89.6318 211.448C89.7178 211.51 89.8175 211.551 89.9225 211.566L91.7512 211.837C91.8729 211.854 91.9874 211.905 92.0817 211.984C92.176 212.063 92.2463 212.167 92.2845 212.284C92.3228 212.401 92.3276 212.526 92.2983 212.645C92.269 212.765 92.2068 212.874 92.1188 212.959L90.7933 214.246C90.7174 214.323 90.661 214.416 90.629 214.519C90.5969 214.622 90.5903 214.731 90.6095 214.836L90.9191 216.655C90.9424 216.778 90.9301 216.906 90.8837 217.022C90.8373 217.138 90.7586 217.239 90.6571 217.312C90.5555 217.385 90.4351 217.428 90.3102 217.435C90.1852 217.442 90.0608 217.413 89.9515 217.352L88.3164 216.491C88.2202 216.443 88.1142 216.418 88.0068 216.418C87.8994 216.418 87.7934 216.443 87.6972 216.491L86.0621 217.352C85.9528 217.413 85.8284 217.442 85.7034 217.435C85.5785 217.428 85.4581 217.385 85.3565 217.312C85.255 217.239 85.1764 217.138 85.1299 217.022C85.0835 216.906 85.0712 216.778 85.0945 216.655L85.4041 214.836C85.4233 214.731 85.4167 214.622 85.3846 214.519C85.3526 214.416 85.2963 214.323 85.2203 214.246L83.9045 212.959C83.8165 212.874 83.7543 212.765 83.725 212.645C83.6957 212.526 83.7005 212.401 83.7387 212.284C83.777 212.167 83.8473 212.063 83.9416 211.984C84.0358 211.905 84.1504 211.854 84.2721 211.837L86.1008 211.566C86.2058 211.551 86.3055 211.51 86.3915 211.448C86.4774 211.386 86.5469 211.303 86.5942 211.208L87.4166 209.544C87.4698 209.431 87.554 209.336 87.6594 209.269C87.7647 209.202 87.8869 209.167 88.0116 209.167C88.1364 209.167 88.2586 209.202 88.3639 209.269C88.4693 209.336 88.5535 209.431 88.6067 209.544Z" fill="#141414"/>
<path d="M73.4164 118.112L74.2291 119.767C74.2758 119.863 74.345 119.947 74.4309 120.011C74.5168 120.075 74.6168 120.117 74.7225 120.134L76.5512 120.395C76.6729 120.415 76.7869 120.467 76.8807 120.547C76.9744 120.627 77.0442 120.732 77.0822 120.849C77.1203 120.966 77.1252 121.091 77.0963 121.211C77.0675 121.331 77.0061 121.44 76.9188 121.527L75.5933 122.814C75.5184 122.89 75.4619 122.981 75.4284 123.082C75.3948 123.183 75.385 123.29 75.3998 123.395L75.7191 125.223C75.7424 125.346 75.7301 125.474 75.6837 125.59C75.6373 125.706 75.5587 125.807 75.4571 125.88C75.3555 125.953 75.2352 125.996 75.1102 126.003C74.9852 126.01 74.8608 125.981 74.7516 125.92L73.1164 125.059C73.0217 125.006 72.9151 124.979 72.8068 124.979C72.6985 124.979 72.5919 125.006 72.4972 125.059L70.8621 125.92C70.7528 125.981 70.6284 126.01 70.5034 126.003C70.3785 125.996 70.2581 125.953 70.1566 125.88C70.055 125.807 69.9764 125.706 69.93 125.59C69.8835 125.474 69.8713 125.346 69.8945 125.223L70.2042 123.395C70.224 123.29 70.2166 123.181 70.1828 123.079C70.1489 122.978 70.0897 122.887 70.0106 122.814L68.6948 121.527C68.6041 121.443 68.5393 121.334 68.5078 121.214C68.4763 121.094 68.4795 120.967 68.5169 120.849C68.5544 120.73 68.6246 120.625 68.7194 120.545C68.8142 120.464 68.9298 120.413 69.0528 120.395L70.8814 120.134C70.9883 120.117 71.0896 120.075 71.1771 120.011C71.2645 119.947 71.3356 119.863 71.3845 119.767L72.1973 118.112C72.2499 117.994 72.3354 117.894 72.4436 117.824C72.5517 117.754 72.6779 117.717 72.8068 117.717C72.9357 117.717 73.0619 117.754 73.1701 117.824C73.2782 117.894 73.3638 117.994 73.4164 118.112Z" fill="#141414"/>
<path d="M146.726 159.697L147.21 160.664C147.239 160.721 147.282 160.77 147.334 160.807C147.386 160.844 147.446 160.868 147.509 160.877L148.603 161.032C148.676 161.044 148.744 161.075 148.8 161.123C148.855 161.172 148.897 161.234 148.919 161.305C148.941 161.375 148.943 161.45 148.925 161.522C148.906 161.593 148.869 161.658 148.816 161.709L148.032 162.483C147.985 162.527 147.95 162.582 147.93 162.643C147.91 162.703 147.905 162.768 147.916 162.831L148.1 163.915C148.115 163.988 148.109 164.064 148.082 164.134C148.056 164.204 148.009 164.264 147.949 164.308C147.889 164.352 147.817 164.378 147.742 164.382C147.668 164.386 147.594 164.368 147.529 164.331L146.561 163.818C146.504 163.789 146.441 163.774 146.377 163.774C146.314 163.774 146.251 163.789 146.194 163.818L145.226 164.331C145.161 164.368 145.087 164.386 145.013 164.382C144.938 164.378 144.866 164.352 144.806 164.308C144.746 164.264 144.699 164.204 144.673 164.134C144.646 164.064 144.64 163.988 144.655 163.915L144.839 162.831C144.85 162.768 144.845 162.703 144.825 162.643C144.805 162.582 144.77 162.527 144.723 162.483L143.93 161.709C143.876 161.657 143.839 161.592 143.821 161.519C143.803 161.447 143.806 161.372 143.829 161.301C143.853 161.23 143.895 161.168 143.952 161.12C144.009 161.073 144.079 161.042 144.152 161.032L145.245 160.877C145.309 160.868 145.369 160.844 145.421 160.807C145.473 160.77 145.516 160.721 145.545 160.664L146.029 159.697C146.065 159.637 146.116 159.587 146.177 159.552C146.238 159.518 146.307 159.5 146.377 159.5C146.448 159.5 146.517 159.518 146.578 159.552C146.639 159.587 146.69 159.637 146.726 159.697Z" fill="#141414"/>
<path d="M117.071 286.473L117.555 287.44C117.584 287.498 117.626 287.548 117.678 287.587C117.73 287.626 117.791 287.652 117.855 287.663L118.948 287.818C119.022 287.828 119.091 287.858 119.148 287.906C119.205 287.953 119.247 288.016 119.271 288.087C119.294 288.157 119.297 288.233 119.279 288.305C119.261 288.377 119.224 288.443 119.17 288.495L118.377 289.259C118.33 289.305 118.295 289.362 118.275 289.424C118.255 289.486 118.25 289.553 118.261 289.617L118.454 290.701C118.467 290.774 118.459 290.85 118.431 290.919C118.402 290.988 118.355 291.047 118.295 291.091C118.234 291.134 118.162 291.16 118.088 291.164C118.014 291.169 117.939 291.152 117.874 291.117L116.906 290.604C116.849 290.575 116.786 290.56 116.723 290.56C116.659 290.56 116.596 290.575 116.539 290.604L115.571 291.117C115.506 291.15 115.433 291.164 115.36 291.158C115.287 291.152 115.218 291.126 115.159 291.083C115.099 291.04 115.053 290.982 115.026 290.914C114.998 290.847 114.989 290.773 115 290.701L115.184 289.617C115.196 289.553 115.193 289.487 115.175 289.425C115.156 289.363 115.123 289.306 115.078 289.259L114.284 288.495C114.231 288.444 114.194 288.379 114.175 288.307C114.157 288.236 114.159 288.161 114.181 288.09C114.203 288.02 114.245 287.957 114.301 287.909C114.356 287.861 114.424 287.829 114.497 287.818L115.591 287.663C115.655 287.653 115.716 287.628 115.768 287.589C115.821 287.55 115.863 287.499 115.891 287.44L116.384 286.473C116.419 286.412 116.469 286.362 116.529 286.328C116.589 286.293 116.658 286.274 116.727 286.274C116.797 286.274 116.865 286.293 116.926 286.328C116.986 286.362 117.036 286.412 117.071 286.473Z" fill="#120808"/>
<path d="M424.259 64.1217L424.743 65.0892C424.771 65.1473 424.813 65.1974 424.865 65.2346C424.918 65.2719 424.979 65.2951 425.043 65.302L426.136 65.4665C426.21 65.4767 426.279 65.5073 426.336 65.5549C426.393 65.6024 426.436 65.6651 426.459 65.7357C426.482 65.8063 426.485 65.8819 426.467 65.9541C426.45 66.0262 426.412 66.092 426.359 66.1438L425.565 66.9081C425.519 66.9525 425.485 67.0074 425.465 67.0681C425.444 67.1287 425.439 67.1933 425.449 67.2565L425.643 68.3498C425.655 68.4232 425.647 68.4988 425.619 68.5678C425.591 68.6368 425.544 68.6964 425.483 68.7398C425.422 68.7833 425.351 68.8087 425.276 68.8133C425.202 68.8179 425.128 68.8014 425.062 68.7658L424.095 68.253C424.038 68.2241 423.975 68.2091 423.911 68.2091C423.847 68.2091 423.784 68.2241 423.727 68.253L422.76 68.7658C422.694 68.7988 422.621 68.8131 422.548 68.8072C422.476 68.8013 422.406 68.7754 422.347 68.7324C422.288 68.6894 422.242 68.6309 422.214 68.5634C422.186 68.4958 422.177 68.4219 422.189 68.3498L422.373 67.2565C422.384 67.1941 422.38 67.13 422.362 67.0694C422.343 67.0088 422.31 66.9535 422.266 66.9081L421.453 66.1535C421.4 66.1023 421.363 66.0373 421.344 65.9659C421.326 65.8944 421.328 65.8193 421.35 65.749C421.372 65.6787 421.414 65.6159 421.469 65.5677C421.525 65.5195 421.593 65.4878 421.666 65.4762L422.76 65.3117C422.824 65.3057 422.885 65.2828 422.938 65.2455C422.991 65.2081 423.033 65.1576 423.059 65.0989L423.553 64.1313C423.583 64.0628 423.631 64.0042 423.693 63.9628C423.756 63.9214 423.828 63.8988 423.903 63.8977C423.978 63.8967 424.051 63.9173 424.114 63.957C424.177 63.9968 424.228 64.0539 424.259 64.1217Z" fill="#120808"/>
<path d="M412.585 257.379L413.427 259.091C413.474 259.191 413.546 259.277 413.636 259.341C413.726 259.405 413.83 259.446 413.939 259.459L415.874 259.74C416.001 259.757 416.12 259.809 416.218 259.891C416.316 259.973 416.389 260.08 416.428 260.202C416.468 260.323 416.472 260.453 416.441 260.577C416.409 260.7 416.344 260.813 416.252 260.901L414.8 262.236C414.722 262.315 414.664 262.412 414.631 262.518C414.597 262.623 414.589 262.736 414.607 262.845L414.936 264.781C414.952 264.902 414.936 265.026 414.888 265.14C414.84 265.253 414.763 265.351 414.664 265.424C414.565 265.498 414.448 265.543 414.326 265.556C414.204 265.568 414.08 265.548 413.968 265.496L412.275 264.606C412.177 264.554 412.067 264.526 411.956 264.526C411.844 264.526 411.735 264.554 411.637 264.606L409.963 265.477C409.851 265.532 409.727 265.555 409.603 265.544C409.479 265.533 409.361 265.488 409.261 265.414C409.161 265.34 409.083 265.24 409.037 265.125C408.99 265.01 408.975 264.884 408.995 264.761L409.314 262.826C409.335 262.716 409.328 262.603 409.294 262.497C409.26 262.391 409.201 262.294 409.121 262.217L407.747 260.881C407.658 260.791 407.596 260.678 407.568 260.555C407.539 260.431 407.545 260.302 407.585 260.182C407.625 260.062 407.698 259.955 407.794 259.874C407.891 259.792 408.009 259.739 408.134 259.72L410.021 259.44C410.13 259.426 410.235 259.386 410.324 259.321C410.414 259.257 410.486 259.171 410.534 259.072L411.385 257.36C411.446 257.254 411.535 257.166 411.641 257.106C411.748 257.046 411.868 257.015 411.991 257.017C412.113 257.019 412.232 257.053 412.337 257.117C412.441 257.181 412.527 257.271 412.585 257.379Z" fill="#141414"/>
<path d="M308.943 97.02C308.943 97.2745 308.867 97.5233 308.726 97.7349C308.584 97.9465 308.384 98.1114 308.148 98.2088C307.913 98.3062 307.655 98.3317 307.405 98.2821C307.155 98.2324 306.926 98.1099 306.746 97.9299C306.566 97.7499 306.444 97.5206 306.394 97.271C306.344 97.0214 306.37 96.7627 306.467 96.5275C306.564 96.2924 306.729 96.0914 306.941 95.95C307.153 95.8086 307.401 95.7332 307.656 95.7332C307.997 95.7332 308.325 95.8687 308.566 96.1101C308.807 96.3514 308.943 96.6787 308.943 97.02Z" fill="#141414"/>
<path d="M345.873 346.431C345.873 346.685 345.798 346.934 345.657 347.146C345.515 347.357 345.314 347.522 345.079 347.62C344.844 347.717 344.585 347.742 344.336 347.693C344.086 347.643 343.857 347.521 343.677 347.341C343.497 347.161 343.374 346.931 343.325 346.682C343.275 346.432 343.3 346.173 343.398 345.938C343.495 345.703 343.66 345.502 343.872 345.361C344.083 345.219 344.332 345.144 344.587 345.144C344.756 345.143 344.924 345.175 345.081 345.239C345.237 345.303 345.38 345.398 345.499 345.518C345.619 345.638 345.714 345.78 345.778 345.937C345.842 346.093 345.875 346.261 345.873 346.431Z" fill="#120808"/>
<path d="M129.137 80.9782C129.137 82.067 128.814 83.1314 128.209 84.0368C127.604 84.9421 126.744 85.6477 125.738 86.0644C124.732 86.4811 123.625 86.5901 122.557 86.3777C121.489 86.1653 120.508 85.6409 119.738 84.871C118.969 84.1011 118.444 83.1201 118.232 82.0522C118.019 80.9843 118.128 79.8774 118.545 78.8714C118.962 77.8655 119.667 77.0057 120.573 76.4007C121.478 75.7958 122.542 75.4729 123.631 75.4729C125.091 75.4729 126.492 76.0529 127.524 77.0854C128.556 78.1178 129.137 79.5181 129.137 80.9782Z" fill="#141414"/>
<path d="M181.229 117.357C184.551 117.941 187.918 118.229 191.291 118.219C189.971 119.762 188.273 120.936 186.364 121.628C184.454 122.32 182.398 122.506 180.396 122.167C178.394 121.828 176.513 120.975 174.938 119.693C173.363 118.411 172.147 116.743 171.408 114.852C174.603 115.971 177.888 116.81 181.229 117.357Z" fill="#120808"/>
<path d="M182.941 107.198C179.112 106.512 175.219 106.24 171.331 106.386C172.3 103.84 174.123 101.709 176.488 100.357C178.853 99.0053 181.614 98.516 184.299 98.9727C186.985 99.4294 189.428 100.804 191.213 102.862C192.999 104.919 194.014 107.533 194.087 110.256C190.492 108.842 186.755 107.817 182.941 107.198Z" fill="#120808"/>
<path d="M200.621 113.637C200.995 111.424 193.127 108.25 183.048 106.547C172.968 104.844 164.494 105.257 164.12 107.47C163.746 109.683 171.614 112.857 181.694 114.56C191.773 116.263 200.247 115.85 200.621 113.637Z" fill="#120808"/>
<path d="M242.579 414.052C346.185 414.052 430.174 409.148 430.174 403.099C430.174 397.05 346.185 392.147 242.579 392.147C138.974 392.147 54.9844 397.05 54.9844 403.099C54.9844 409.148 138.974 414.052 242.579 414.052Z" fill="#120808"/>
<path d="M246.787 128.891L246.109 128.358C249.157 124.488 252.36 120.85 255.63 117.445L256.239 118.044C252.989 121.421 249.805 125.078 246.787 128.891Z" fill="#407BFF"/>
<path d="M243.173 132.068L240.053 136.003L240.72 136.532L243.84 132.598L243.173 132.068Z" fill="#407BFF"/>
<path d="M310.306 173.774C331.33 139.978 334.194 106.676 318.888 95.8976C303.582 85.1193 273.191 99.0325 248.452 130.216L177.754 219.394L250.242 270.441L310.306 173.774Z" fill="#407BFF"/>
<path opacity="0.1" d="M302.033 167.95L240.498 263.61L232.971 249.223L294.09 161.951C311.37 137.269 321.055 114.716 321.094 102.157C321.092 101.915 321.176 101.679 321.331 101.493C321.487 101.306 321.703 101.181 321.943 101.139C322.182 101.097 322.428 101.142 322.638 101.264C322.847 101.387 323.006 101.58 323.087 101.809C327.441 114.339 319.894 140.191 302.033 167.95Z" fill="#0E0C1B"/>
<path d="M250.198 270.418C259.984 256.52 251.688 233.826 231.669 219.73C211.649 205.634 187.487 205.474 177.701 219.372C167.916 233.27 176.211 255.964 196.231 270.06C216.25 284.156 240.412 284.316 250.198 270.418Z" fill="#407BFF"/>
<path opacity="0.5" d="M250.198 270.418C259.984 256.52 251.688 233.826 231.669 219.73C211.649 205.634 187.487 205.474 177.701 219.372C167.916 233.27 176.211 255.964 196.231 270.06C216.25 284.156 240.412 284.316 250.198 270.418Z" fill="#0E0C1B"/>
<path opacity="0.1" d="M242.675 203.981C226.768 192.777 208.724 189.574 197.201 194.808L179.253 217.429C189.896 205.548 212.643 206.361 231.664 219.752C250.686 233.142 259.132 254.321 251.508 268.322L266.573 244.133C267.869 231.43 258.755 215.301 242.675 203.981Z" fill="black"/>
<path opacity="0.2" d="M268.15 131.048C263.738 138.034 260.41 151.105 273.52 160.326C286.63 169.546 297.814 162.029 302.894 155.488L268.15 131.048Z" fill="black"/>
<path d="M305.991 147.438C304.491 159.919 290.065 169.024 274.923 158.362C259.781 147.699 263.487 131.048 274.73 125.465C281.657 122.002 290.481 123.53 296.518 127.73C302.556 131.929 306.919 139.698 305.991 147.438Z" fill="#0E0C1B"/>
<path d="M276.984 155.411C271.092 151.269 268.073 145.851 268.499 140.182C268.692 137.735 269.515 135.379 270.889 133.345C272.262 131.31 274.138 129.666 276.336 128.571C281.599 125.939 289.049 126.762 294.457 130.564C299.866 134.367 303.165 141.12 302.44 146.964C302.152 149.395 301.241 151.71 299.795 153.685C298.349 155.66 296.417 157.227 294.187 158.236C289.02 160.577 282.876 159.561 276.984 155.411Z" fill="#407BFF"/>
<path opacity="0.3" d="M276.984 155.411C271.092 151.269 268.073 145.851 268.499 140.182C268.692 137.735 269.515 135.379 270.889 133.345C272.262 131.31 274.138 129.666 276.336 128.571C281.599 125.939 289.049 126.762 294.457 130.564C299.866 134.367 303.165 141.12 302.44 146.964C302.152 149.395 301.241 151.71 299.795 153.685C298.349 155.66 296.417 157.227 294.187 158.236C289.02 160.577 282.876 159.561 276.984 155.411Z" fill="black"/>
<path d="M276.984 155.411C271.092 151.27 267.966 146.006 268.199 140.607C268.299 138.312 269.032 136.089 270.316 134.184C271.599 132.278 273.385 130.765 275.474 129.81C280.535 127.468 287.84 128.494 293.248 132.306C298.657 136.118 302.082 142.649 301.578 148.202C301.383 150.495 300.557 152.689 299.19 154.54C297.824 156.392 295.971 157.828 293.838 158.69C288.875 160.732 282.876 159.561 276.984 155.411Z" fill="#407BFF"/>
<path opacity="0.2" d="M276.984 155.411C271.092 151.27 267.966 146.006 268.199 140.607C268.299 138.312 269.032 136.089 270.316 134.184C271.599 132.278 273.385 130.765 275.474 129.81C280.535 127.468 287.84 128.494 293.248 132.306C298.657 136.118 302.082 142.649 301.578 148.202C301.383 150.495 300.557 152.689 299.19 154.54C297.824 156.392 295.971 157.828 293.838 158.69C288.875 160.732 282.876 159.561 276.984 155.411Z" fill="#0E0C1B"/>
<path opacity="0.3" d="M297.351 136.128L270.114 148.144C268.764 145.868 268.092 143.253 268.179 140.607C268.231 139.361 268.476 138.131 268.905 136.96L286.485 129.219C290.752 130.301 294.556 132.73 297.331 136.147L297.351 136.128Z" fill="#0E0C1B"/>
<path opacity="0.3" d="M301.259 143.878L276.268 154.888C274.765 153.786 273.395 152.513 272.185 151.095L299.372 139.098C300.222 140.595 300.857 142.204 301.259 143.878Z" fill="#0E0C1B"/>
<path opacity="0.1" d="M328.504 122.331C327.672 115.655 322.544 107.934 314.436 102.225C306.328 96.5168 297.34 94.2915 290.771 95.7525C301.946 91.1954 311.959 91.0212 318.887 95.8976C325.815 100.774 329.027 110.275 328.504 122.331Z" fill="black"/>
<path opacity="0.5" d="M231.653 243.203C234.702 238.873 232.233 231.884 226.138 227.593C220.043 223.301 212.63 223.332 209.582 227.662C206.533 231.992 209.002 238.981 215.097 243.272C221.192 247.564 228.605 247.533 231.653 243.203Z" fill="#407BFF"/>
<path opacity="0.5" d="M202.91 239.141C199.862 243.466 192.451 243.504 186.355 239.209C180.26 234.913 177.783 227.927 180.831 223.602C183.878 219.277 191.299 219.239 197.395 223.535C203.49 227.83 205.919 234.816 202.91 239.141Z" fill="#407BFF"/>
<path opacity="0.5" d="M245.201 268.951C242.153 273.285 234.742 273.314 228.646 269.018C222.551 264.722 220.084 257.737 223.131 253.412C226.179 249.087 233.59 249.048 239.686 253.344C245.781 257.64 248.248 264.626 245.201 268.951Z" fill="#407BFF"/>
<path opacity="0.5" d="M216.455 264.877C213.407 269.202 205.996 269.231 199.9 264.945C193.805 260.659 191.338 253.664 194.385 249.329C197.433 244.994 204.844 244.975 210.94 249.261C217.035 253.547 219.464 260.543 216.455 264.877Z" fill="#407BFF"/>
<path opacity="0.5" d="M231.665 243.224C231.342 243.681 230.965 244.097 230.542 244.462C232.235 240.147 229.681 234.158 224.234 230.327C218.787 226.495 212.295 226.108 208.802 229.146C209.007 228.631 209.27 228.141 209.585 227.685C212.633 223.36 220.054 223.322 226.15 227.618C232.245 231.913 234.703 238.889 231.665 243.224Z" fill="#407BFF"/>
<path opacity="0.5" d="M202.91 239.141C202.589 239.596 202.215 240.012 201.797 240.379C203.49 236.055 200.946 230.075 195.489 226.234C190.032 222.393 183.549 222.016 180.057 225.063C180.26 224.547 180.523 224.057 180.84 223.602C183.888 219.268 191.299 219.239 197.395 223.535C203.49 227.831 205.919 234.806 202.91 239.141Z" fill="#407BFF"/>
<path opacity="0.5" d="M245.201 268.96C244.879 269.412 244.506 269.824 244.088 270.189C245.781 265.864 243.227 259.885 237.78 256.053C232.333 252.222 225.84 251.825 222.348 254.883C222.549 254.363 222.812 253.869 223.131 253.412C226.179 249.077 233.59 249.048 239.686 253.344C245.781 257.64 248.258 264.626 245.201 268.96Z" fill="#407BFF"/>
<path opacity="0.5" d="M216.455 264.877C216.139 265.333 215.765 265.746 215.342 266.106C217.035 261.791 214.481 255.802 209.034 251.97C203.587 248.139 197.094 247.752 193.602 250.8C193.801 250.279 194.064 249.785 194.385 249.329C197.433 244.994 204.844 244.975 210.94 249.261C217.035 253.547 219.464 260.543 216.455 264.877Z" fill="#407BFF"/>
<path d="M225.723 163.141C225.723 163.141 212.661 180.092 201.283 194.683C199.667 196.717 197.55 198.296 195.14 199.264C192.729 200.233 190.109 200.558 187.535 200.207C177.598 198.979 161.411 206.013 161.411 206.013C161.411 206.013 192.034 155.71 225.723 163.141Z" fill="#407BFF"/>
<path opacity="0.3" d="M225.723 163.141C225.723 163.141 212.661 180.092 201.283 194.683C199.667 196.717 197.55 198.296 195.14 199.264C192.729 200.233 190.109 200.558 187.535 200.207C177.598 198.979 161.411 206.013 161.411 206.013C161.411 206.013 192.034 155.71 225.723 163.141Z" fill="black"/>
<path d="M286.979 206.283C286.979 206.283 275.475 224.289 265.519 239.915C264.149 242.122 263.377 244.647 263.278 247.242C263.18 249.838 263.759 252.414 264.958 254.718C269.466 263.668 268.286 281.316 268.286 281.316C268.286 281.316 305.333 235.484 286.979 206.283Z" fill="#407BFF"/>
<path opacity="0.3" d="M286.979 206.283C286.979 206.283 275.475 224.289 265.519 239.915C264.149 242.122 263.377 244.647 263.278 247.242C263.18 249.838 263.759 252.414 264.958 254.718C269.466 263.668 268.286 281.316 268.286 281.316C268.286 281.316 305.333 235.484 286.979 206.283Z" fill="black"/>
<path d="M329.182 335.73C341.266 306.162 289.02 297.783 268.343 305.204C247.667 312.625 226.585 318.14 225.772 298.354C224.959 278.568 240.885 266.3 233.29 261.733C229.081 259.198 227.881 263.668 225.801 270.189C219.435 290.169 183.375 294.929 199.968 323.848C216.561 352.768 207.708 346.489 179.795 358.089C151.882 369.69 166.249 403.099 193.253 403.099H355.876C430.415 403.099 359.843 260.427 329.182 335.73Z" fill="#407BFF"/>
<path opacity="0.6" d="M329.182 335.73C341.266 306.162 289.02 297.783 268.343 305.204C247.667 312.625 226.585 318.14 225.772 298.354C224.959 278.568 240.885 266.3 233.29 261.733C229.081 259.198 227.881 263.668 225.801 270.189C219.435 290.169 183.375 294.929 199.968 323.848C216.561 352.768 207.708 346.489 179.795 358.089C151.882 369.69 166.249 403.099 193.253 403.099H355.876C430.415 403.099 359.843 260.427 329.182 335.73Z" fill="#0E0C1B"/>
<path d="M191.831 232.668C189.664 225.141 177.937 234.603 166.385 246.068C154.833 257.534 149.134 283.705 137.959 297.348C126.784 310.99 94.7876 323.316 107.298 343.847C125.749 374.102 83.3417 403.128 133.566 403.128H236.58C255.417 403.128 275.842 380.091 246.507 364.427C217.171 348.762 173.226 385.287 161.364 350.446C155.481 333.156 176.844 341.09 166.946 312.78C157.048 284.47 157.706 276.759 162.747 264.142C175.015 233.394 195.169 244.104 191.831 232.668Z" fill="#407BFF"/>
<path opacity="0.6" d="M191.831 232.668C189.664 225.141 177.937 234.603 166.385 246.068C154.833 257.534 149.134 283.705 137.959 297.348C126.784 310.99 94.7876 323.316 107.298 343.847C125.749 374.102 83.3417 403.128 133.566 403.128H236.58C255.417 403.128 275.842 380.091 246.507 364.427C217.171 348.762 173.226 385.287 161.364 350.446C155.481 333.156 176.844 341.09 166.946 312.78C157.048 284.47 157.706 276.759 162.747 264.142C175.015 233.394 195.169 244.104 191.831 232.668Z" fill="#0E0C1B"/>
<path d="M213.184 236.142C215.739 231.478 224.505 234.274 224.311 240.379C224.118 246.484 201.419 254.486 205.638 275.568C209.856 296.651 250.376 298.16 259.887 319.282C269.398 340.403 232.554 343.364 243.546 356.57C254.537 369.777 288.459 339.445 312.628 347.243C336.797 355.042 360.946 403.099 316.614 403.099H180.008C150.304 403.099 128.612 341.767 157.155 316.534C185.697 291.301 162.67 299.496 173.322 283.328C183.975 267.161 203.383 254.022 213.184 236.142Z" fill="#407BFF"/>
<path opacity="0.8" d="M213.184 236.142C215.739 231.478 224.505 234.274 224.311 240.379C224.118 246.484 201.419 254.486 205.638 275.568C209.856 296.651 250.376 298.16 259.887 319.282C269.398 340.403 232.554 343.364 243.546 356.57C254.537 369.777 288.459 339.445 312.628 347.243C336.797 355.042 360.946 403.099 316.614 403.099H180.008C150.304 403.099 128.612 341.767 157.155 316.534C185.697 291.301 162.67 299.496 173.322 283.328C183.975 267.161 203.383 254.022 213.184 236.142Z" fill="#0E0C1B"/>
</svg>
